# xmcd
#
# Track frame offsets: 
#        150
#        11183
#        24296
#        40421
#        55570
#        68598
#        86321
#        99316
#        110275
#        125210
#
# Disc length: 1847 seconds
#
# Revision: 2
# Processed by: cddbd v1.5.2PL0 Copyright (c) Steve Scherf et al.
# Submitted via: ExactAudioCopyFreeDBPlugin 1.0
#
DISCID=7407350a
DTITLE=Various Artist - The Best Of R&B
DYEAR=2008
DGENRE=R&B
TTITLE0=The Drifters - Save The Last Dance For Me
TTITLE1=Sam and Dave - Soul Man
TTITLE2=Harold Melvin and The Bluenotes - If You Don't Know Me By Now
TTITLE3=The Delfonics - La La Means I Love You
TTITLE4=Clarence Carter - Patches
TTITLE5=Brook Benton - Rainy Night In Georgia
TTITLE6=Mary Wells - Two Lovers
TTITLE7=The Crystals - He's A Rebel
TTITLE8=The Miracles - Tracks Of My Tears
TTITLE9=The Spinners - Games People Play
EXTD=BFP2 52240\n\nDisc Two of Four
EXTT0=
EXTT1=
EXTT2=
EXTT3=
EXTT4=
EXTT5=
EXTT6=
EXTT7=
EXTT8=
EXTT9=
PLAYORDER=
